@startuml Delivery App

entity User {
    +Id: UUID [PK]
    --
    FullName: VARCHAR(255)
    Email: VARCHAR(255)
    AddressId: UUID [FK]
    CreatedAt: TIMESTAMP
}

entity Address {
    +Id: UUID [PK]
    --
    Street: VARCHAR(255)
    City: VARCHAR(255)
    Country: VARCHAR(255)
}

entity Restaurant {
    + Id: UUID [PK]
    --
    Name: VARCHAR(255)
    Branch: VARCHAR(255)
    AddressId: UUID [FK]
}

entity Product {
    +Id: UUID [PK]
    --
    Name: VARCHAR(255)
    Description: TEXT
    Price: DECIMAL
    Category: VARCHAR(255)
}

entity Topic {
    + Id: UUID [PK]
    --
    Name: VARCHAR(255)
    Price: DECIMAL
}

entity Order {
    +Id: UUID [PK]
    --
    UserId: UUID [FK]
    Status: VARCHAR(50)
    OrderDate: TIMESTAMP
    TotalAmount: DECIMAL(10,2)
}

entity OrderItem {
    +Id: UUID [PK]
    --
    OrderId: UUID [FK]
    ProductId: UUID [FK]
    Quantity: INT
    UnitPrice: DECIMAL(10,2)
}

User ||--o Address : "has"
User --o Order : "has"
Order ||--o OrderItem : "contains"
OrderItem ||--o Product : "has"
Product ||--o Topic : "has"
Restaurant ||--o Product : "has"

@enduml
